<svg width="13" height="15" viewBox="0 0 13 15" fill="none" xmlns="http://www.w3.org/2000/svg">
<path d="M1.944 11L2.888 6.888L0.76 0.44H1.624L2.824 4.2L3.416 6.136L5 4.056L7.864 0.44H8.824L3.688 6.952L2.744 11H1.944Z" fill="white"/>
<path d="M3.40287 14.36L6.02688 3H6.73088L6.26688 5.24L6.13888 5.272C6.28821 4.76 6.51754 4.328 6.82687 3.976C7.14687 3.61333 7.53088 3.336 7.97888 3.144C8.42688 2.952 8.90688 2.856 9.41888 2.856C10.0269 2.856 10.5602 3.00533 11.0189 3.304C11.4775 3.60267 11.8349 4.01867 12.0909 4.552C12.3469 5.08533 12.4749 5.69867 12.4749 6.392C12.4749 7.05333 12.3789 7.67733 12.1869 8.264C11.9949 8.84 11.7229 9.34667 11.3709 9.784C11.0189 10.2107 10.5975 10.5467 10.1069 10.792C9.61621 11.0373 9.07221 11.16 8.47487 11.16C7.86688 11.16 7.33888 11.032 6.89088 10.776C6.44287 10.52 6.09621 10.1627 5.85087 9.704C5.61621 9.23467 5.49354 8.70133 5.48287 8.104L5.70687 7.816L4.20287 14.36H3.40287ZM8.49088 10.472C8.94954 10.472 9.37088 10.3707 9.75488 10.168C10.1495 9.96533 10.4909 9.67733 10.7789 9.304C11.0669 8.93067 11.2909 8.49867 11.4509 8.008C11.6109 7.51733 11.6909 6.97867 11.6909 6.392C11.6909 5.79467 11.5789 5.28267 11.3549 4.856C11.1415 4.42933 10.8482 4.104 10.4749 3.88C10.1015 3.656 9.66954 3.544 9.17887 3.544C8.67754 3.544 8.22954 3.65067 7.83488 3.864C7.44021 4.06667 7.09888 4.36 6.81087 4.744C6.52287 5.11733 6.29888 5.56 6.13888 6.072C5.98954 6.584 5.91488 7.13867 5.91488 7.736C5.91488 8.568 6.14421 9.23467 6.60287 9.736C7.06154 10.2267 7.69088 10.472 8.49088 10.472Z" fill="#F82440"/>
</svg>
