<svg version="1.2" xmlns="http://www.w3.org/2000/svg" viewBox="0 0 250 250" width="250" height="250">
	<title>icon-svg</title>
	<style>
		.s0 { fill: #ffffff } 
	</style>
	<path id="path3486" fill-rule="evenodd" class="s0" d="m10.7 180c-0.5 0-1-0.2-1.3-0.6-0.3-0.4-0.5-1-0.4-1.5l16.3-84.9c0.1-0.8 0.8-1.4 1.7-1.4h35c11 0 19.2 3 24.3 9 5.2 6 6.8 14.4 4.8 25-0.8 4.3-2.2 8.3-4.2 11.9-2 3.6-4.6 6.9-7.8 9.9-3.8 3.6-8.1 6.2-12.7 7.7-4.6 1.6-10.5 2.3-17.5 2.3h-14.2l-4.1 21.2c-0.1 0.8-0.8 1.4-1.7 1.4zm36.2-39.5c6.9 0 12.1-1.3 15.4-3.8 3.2-2.6 5.4-6.9 6.6-13.1 1.1-5.7 0.7-9.7-1.2-11.8-2-2.2-6.2-3.3-12.6-3.3h-11l-6.2 32z"/>
	<path id="path3494" class="s0" d="m134.3 157.4c-0.5 0-1-0.2-1.3-0.6-0.3-0.4-0.5-0.9-0.4-1.5l7.1-37.5c0.7-3.6 0.5-6.2-0.5-7.3-0.6-0.6-2.3-1.7-7.7-1.7h-12.8l-8.9 47.2c-0.2 0.8-0.9 1.4-1.7 1.4h-17.8c-0.6 0-1-0.2-1.4-0.6-0.3-0.4-0.4-0.9-0.3-1.5l16-84.9c0.2-0.8 0.9-1.4 1.7-1.4h17.8c0.5 0 1 0.2 1.3 0.6 0.4 0.4 0.5 1 0.4 1.5l-3.9 20.5h13.9c10.5 0 17.6 1.9 21.8 5.8 4.2 4 5.6 10.4 3.9 19.1l-7.4 39.5c-0.2 0.8-0.9 1.4-1.7 1.4z"/>
	<path id="path3502" fill-rule="evenodd" class="s0" d="m156.8 180c-0.5 0-1-0.2-1.4-0.6-0.3-0.4-0.4-1-0.3-1.5l16.8-84.9c0.2-0.8 0.9-1.4 1.8-1.4h36.4c11.4 0 19.9 3 25.2 9 5.4 6 7.1 14.4 5 25-0.9 4.3-2.4 8.3-4.4 11.9-2 3.6-4.8 6.9-8 9.9-4 3.6-8.4 6.2-13.3 7.7-4.8 1.6-10.9 2.3-18.2 2.3h-14.7l-4.2 21.2c-0.2 0.8-0.9 1.4-1.8 1.4zm37.6-39.5c7.2 0 12.5-1.3 15.9-3.8 3.4-2.6 5.7-6.9 6.9-13.1 1.2-5.7 0.7-9.7-1.3-11.8-2-2.2-6.4-3.3-13-3.3h-11.5l-6.3 32z"/>
</svg>