<svg version="1.2" xmlns="http://www.w3.org/2000/svg" viewBox="0 0 250 250" width="250" height="250">
	<title>icon-svg</title>
	<style>
		.s0 { fill: #ffffff } 
	</style>
	<path id="Layer" fill-rule="evenodd" class="s0" d="m243.1 51.6l-104.1 186c-2.6 4.7-7.6 7.7-13 7.7-5.3 0-10.3-2.9-12.9-7.6l-106.1-186c-2.7-4.7-2.7-10.3 0-14.9 2.7-4.6 7.6-7.4 12.9-7.4q1.3 0 2.6 0.2l63.1 11.3 0.6-9.5c0.3-5.5 4.3-10 9.7-11.1l77-15.1q1.2-0.2 2.4-0.2c3.7 0 7.3 1.8 9.6 4.8 2.3 3.1 3 6.9 1.9 10.6l-5 17.6 45.6-8.3q1.4-0.3 2.7-0.3c5.3 0 10.2 2.8 12.8 7.4 2.7 4.6 2.8 10.1 0.2 14.8zm-65.1-33.8q0.1-0.3 0.1-0.6 0-0.7-0.3-1.3-0.1-0.3-0.3-0.6c-0.5-0.6-1.3-1.1-2.2-1.1q-0.3 0-0.6 0.1l-77 15.1q-0.5 0.1-0.9 0.3c-0.8 0.5-1.3 1.3-1.4 2.3l-4.7 80c-0.1 1.6 1.2 3 2.8 3q0.3 0 0.6-0.1l21.5-4.9q0.3-0.1 0.6-0.1c1.7 0 3.1 1.6 2.8 3.4l-6.4 31.2c-0.4 1.8 1.1 3.4 2.8 3.4q0.4 0 0.8-0.2l13.2-4q0.5-0.1 0.9-0.1c1.7 0 3.1 1.6 2.7 3.4l-10.1 49c-0.4 2 1.2 3.4 2.8 3.4 0.9 0 1.8-0.4 2.4-1.3l1.1-1.7 62.7-125.3c1-1.9-0.4-4.1-2.5-4.1q-0.2 0-0.5 0.1l-22.1 4.2q-0.3 0.1-0.5 0.1c-1.9 0-3.3-1.8-2.7-3.6zm52.1 20.8q-0.5 0-1 0.1l-52.2 9.5-4.2 14.4 14.8-2.8q0.9-0.2 1.9-0.2c3.6 0 6.8 1.8 8.7 4.8 1.9 3.1 2 6.8 0.4 10l-62.7 125.2q-0.2 0.4-0.4 0.7l-1.2 1.8c-1.8 2.9-5 4.6-8.5 4.6-3.1 0-6.1-1.4-8-3.8-1.9-2.3-2.7-5.4-2-8.5l8.5-41.4-5.9 1.7q-1.4 0.5-2.9 0.5c-3.1 0-6-1.4-7.9-3.8-2-2.4-2.8-5.4-2.1-8.5l4.9-24.2-14.5 3.3q-1.2 0.3-2.3 0.3c-2.8 0-5.5-1.2-7.4-3.2-2-2-3-4.8-2.8-7.6l3.6-61.1-66-11.8q-0.5-0.1-1-0.1c-4.2 0-7.1 4.7-4.9 8.5l106.1 186.1c1.1 1.9 3 2.9 4.9 2.9 2 0 3.9-1 5-2.9l104-186.1c2.2-3.9-0.7-8.4-4.9-8.4z"/>
</svg>