<svg width="69" height="85" viewBox="0 0 69 85" fill="none" xmlns="http://www.w3.org/2000/svg">
<path d="M7.76 64L13.424 39.424L0.656001 0.639997H3.536L10.928 23.584L15.248 36.832L26.288 22.528L43.664 0.639997H46.928L16.112 39.616L10.448 64H7.76Z" fill="white"/>
<path d="M14.4485 84.16L30.1925 16H34.4165L31.6325 29.44L30.8645 29.632C31.7605 26.56 33.1365 23.968 34.9925 21.856C36.9125 19.68 39.2165 18.016 41.9045 16.864C44.5925 15.712 47.4725 15.136 50.5445 15.136C54.1925 15.136 57.3925 16.032 60.1445 17.824C62.8965 19.616 65.0405 22.112 66.5765 25.312C68.1125 28.512 68.8805 32.192 68.8805 36.352C68.8805 40.32 68.3045 44.064 67.1525 47.584C66.0005 51.04 64.3685 54.08 62.2565 56.704C60.1445 59.264 57.6165 61.28 54.6725 62.752C51.7285 64.224 48.4645 64.96 44.8805 64.96C41.2325 64.96 38.0645 64.192 35.3765 62.656C32.6885 61.12 30.6085 58.976 29.1365 56.224C27.7285 53.408 26.9925 50.208 26.9285 46.624L28.2725 44.896L19.2485 84.16H14.4485ZM44.9765 60.832C47.7285 60.832 50.2565 60.224 52.5605 59.008C54.9285 57.792 56.9765 56.064 58.7045 53.824C60.4325 51.584 61.7765 48.992 62.7365 46.048C63.6965 43.104 64.1765 39.872 64.1765 36.352C64.1765 32.768 63.5045 29.696 62.1605 27.136C60.8805 24.576 59.1205 22.624 56.8805 21.28C54.6405 19.936 52.0485 19.264 49.1045 19.264C46.0965 19.264 43.4085 19.904 41.0405 21.184C38.6725 22.4 36.6245 24.16 34.8965 26.464C33.1685 28.704 31.8245 31.36 30.8645 34.432C29.9685 37.504 29.5205 40.832 29.5205 44.416C29.5205 49.408 30.8965 53.408 33.6485 56.416C36.4005 59.36 40.1765 60.832 44.9765 60.832Z" fill="#F82440"/>
</svg>
